<svg viewBox="0 0 100 120" class="w-64 text-slate-400 dark:text-slate-600">
  <path d="m21.879 95h56.25c0.49609 0 0.97266-0.19531 1.3242-0.54688s0.54688-0.82812 0.54688-1.3242v-42.629c0-6.7344-1.0117-13.426-3-19.859l-4.5-14.641v-9.1211c0-1.0352-0.83594-1.875-1.8711-1.8789h-41.25c-1.0391 0-1.8789 0.83984-1.8789 1.8789v9.1211l-4.5 14.641c-1.9922 6.4297-3.0039 13.125-3 19.859v42.629c0.003906 1.0352 0.84375 1.8711 1.8789 1.8711zm35.621-86.25h11.25v5.6289h-11.25zm-8.3711 31.25c0.15234 0.91016 0.94922 1.5742 1.8711 1.5586h11.191c0.55469 0.007812 1.082-0.23047 1.4453-0.65234 0.36328-0.41797 0.52344-0.97656 0.43359-1.5273-0.49219-2.957-1.1836-5.875-2.0703-8.7383l-3.8281-12.512h11.066l4.1914 13.621c1.8711 6.0742 2.8242 12.395 2.8203 18.75v40.75h-37.5v-40.75c0-6.7344-1.0117-13.426-3-19.859l-3.8281-12.512h11.078c1.5781 5.4727 5.3516 16.32 6.1289 21.871zm-17.879-31.25h11.25v5.6289h-11.25zm-3.75 70.309c0.070312-0.98047 0.89062-1.7422 1.875-1.7422s1.8047 0.76172 1.875 1.7422v5.6328c-0.070312 0.98047-0.89062 1.7422-1.875 1.7422s-1.8047-0.76172-1.875-1.7422zm28.5-3.4805c2.5664 1.0586 5.4844 0.80078 7.8242-0.6875 2.3438-1.4844 3.8125-4.0195 3.9453-6.7891 1.0703-8.2617-8.6719-18-16.641-13.191-7.8008 5.1914-3.0703 18.09 4.8711 20.668zm6.4492-13.82c1.8008 2.8281 2.3984 6.6992 0.28125 9.2188-3.0586-1.4883-3.0586-3-3.0703-5.4492-0.011718-2.4492 0-5.2812-3-8.0508v0.003907c2.4336 0.57422 4.5273 2.1211 5.7891 4.2812zm-10.25-2.8594c6.8281 3.7812 1.1484 8.5508 5.8984 13.379l0.003906 0.003906c-2.3438-0.61328-4.3516-2.1211-5.5898-4.2031-1.793-2.8281-2.3906-6.6484-0.3125-9.1797z" fill="currentColor" />
</svg>
