<svg xmlns="http://www.w3.org/2000/svg" xmlns:xlink="http://www.w3.org/1999/xlink" version="1.1" x="0px" y="0px" viewBox="0 0 1024 1280" enable-background="new 0 0 1024 1024" xml:space="preserve" class="w-28 h-28 text-brown-600 dark:text-brown-400">
  <path fill="currentColor" d="M974.848 284.493714C963.730286 300.877714 940.617143 320.772571 893.220571 320.772571L837.924571 320.772571C838.802286 355.881143 836.461714 378.994286 836.461714 378.994286L69.632 378.994286C69.632 378.994286 53.833143 231.830857 119.369143 116.265143 160.621714 44.292571 185.490286 23.52 220.891429-12.173714 280.283429-71.858286 351.670857-71.858286 351.670857-71.858286L552.96-71.858286C552.96-71.858286 624.347429-71.858286 682.861714-13.929143 696.32-0.178286 708.900571 11.232 721.188571 24.690286 923.062857 35.808 974.262857 176.827429 980.406857 195.552 984.210286 205.792 998.253714 249.385143 974.848 284.493714L974.848 284.493714ZM916.333714 219.835429 915.163429 216.324571C914.870857 215.446857 889.709714 131.478857 778.532571 102.221714 781.165714 106.610286 783.798857 111.291429 786.724571 116.265143 811.593143 160.443429 824.758857 209.010286 831.488 252.310857L893.220571 252.310857C909.604571 252.310857 916.626286 248.507429 918.089143 246.459429 921.307429 241.778286 919.552 228.32 916.333714 219.835429L916.333714 219.835429ZM855.976229-122.209829 51.843657-122.209829C3.452343-174.580114 319.166171-207.933257 319.166171-207.933257L588.5952-207.933257C588.5952-207.933257 894.888229-175.808914 855.976229-122.209829M524.580571 441.604571C525.458286 438.678857 515.803429 435.168 512.585143 436.338286 415.744 497.193143 439.149714 582.038857 502.345143 644.064 550.619429 691.168 586.605714 714.866286 586.898286 789.472 586.605714 796.201143 601.234286 797.078857 603.574857 794.153143 722.651429 625.339429 455.826286 616.562286 524.580571 441.604571M349.915429 441.604571C351.085714 438.678857 341.430857 435.168 338.212571 436.338286 241.371429 497.193143 264.484571 582.038857 327.972571 644.064 375.954286 691.168 411.940571 714.866286 412.233143 789.472 412.233143 796.201143 426.861714 797.078857 429.202286 794.153143 548.278857 625.339429 281.161143 616.562286 349.915429 441.604571" transform="translate(0, 812) scale(1, -1)"/>
 <path d="m66.32 66.512h-41.871c-1.1094 0-2 0.89844-2 2 0 1.1016 0.89062 2 2 2h41.871c1.1016 0 2-0.89062 2-2s-0.89844-2-2-2z" fill="currentColor" />
</svg>
