<svg viewBox="0 0 100 100" class="w-40 h-40">
  <path d="m97.125 47.398c-9.6094-9.6016-23.953-12.68-36.656-7.8633 4.8125-12.703 1.7344-27.047-7.8672-36.656-1.1719-1.1719-3.0703-1.1719-4.2422 0-10.012 10.016-12.891 25.129-7.2656 38.121-3.625-0.84766-7.3867-0.94141-11.051-0.28125-6.8398 1.2969-13.121 4.6523-18 9.6172-4.9648 4.8828-8.3203 11.16-9.6172 18-1.5 8.5898 0.9375 16.812 6.6836 22.555 5.7461 5.7461 13.969 8.1797 22.555 6.6836 6.8398-1.2969 13.117-4.6523 18-9.6172 4.9648-4.8828 8.3203-11.16 9.6172-18 0.66016-3.6641 0.56641-7.4258-0.28125-11.051 12.996 5.625 28.109 2.7461 38.121-7.2656 1.1758-1.1719 1.1758-3.0742 0.003906-4.2422zm-77.402 35.879c-1.6562 0-3-1.3438-3-3s1.3438-3 3-3 3 1.3438 3 3-1.3438 3-3 3zm30.758-73.789c8.2773 10.398 8.2773 25.137 0 35.539-8.2773-10.402-8.2773-25.137 0-35.539zm4.4922 40.031c10.398-8.2773 25.137-8.2773 35.539 0-10.402 8.2734-25.137 8.2734-35.539 0z" fill="currentColor"/>
</svg>
