<svg xmlns="http://www.w3.org/2000/svg" xmlns:xlink="http://www.w3.org/1999/xlink" version="1.1" x="0px" y="0px" viewBox="-25.6 -51.2 563.2 691.2" enable-background="new 0 0 512 512" xml:space="preserve" class="w-24 h-24" >
  <path d="M412.03,220.38c-4.75,45.96-26.79,89.6-61.12,120.61c-34.17,30.88-80.29,48.59-126.53,48.59c-2.12,0-4.26-0.04-6.36-0.12   c-0.71-0.03-1.44-0.06-2.16-0.11h-0.03c62.23-39.44,118.58-87.24,167.65-142.27c2.75-3.09,2.48-7.83-0.61-10.59   c-3.09-2.76-7.83-2.49-10.59,0.61c-44.48,49.88-95.07,93.72-150.66,130.61c5.27-17.63,8.71-35.49,10.32-53.17   c14.67-24.1,33.06-44.77,54.09-60.46c30.59-22.82,67.35-35.39,103.52-35.39C397.14,218.69,404.67,219.26,412.03,220.38z"  fill="currentColor" /><path d="M217.3,309.78c-1.38,17.83-4.74,35.91-10.08,53.76c-0.84,2.81-1.97,5.91-3.41,8.5c-2.57-5.91-5.07-11.85-7.48-17.82   c-25.14-62-42.18-126.91-50.72-193.39c-0.53-4.11-4.3-7.01-8.4-6.48c-4.11,0.53-7.01,4.28-6.48,8.39   c9.4,73.13,28.88,144.42,57.95,212.12c-0.63-0.38-1.25-0.77-1.86-1.15c-40.96-25.98-70.95-67.92-82.27-115.08   c-10.81-44.98-4.33-93.44,17.71-134.05c38.45,18.56,69.92,55.1,84.93,99C216.25,250.1,219.62,279.59,217.3,309.78z" fill="currentColor"/>
</svg>
