<?xml version="1.0" encoding="UTF-8"?>
<!-- Created with Inkscape (http://www.inkscape.org/) -->
<svg version="1.1" viewBox="0 0 12.7 12.7" xmlns="http://www.w3.org/2000/svg" xmlns:xlink="http://www.w3.org/1999/xlink">
 <g transform="translate(-.4253 .11667)" fill="#2c8553">
  <path d="m1.1353 7.776c8.837e-4 0.58546 0.10494 1.1663 0.30747 1.7162 6.9935 0.019541 5.7011 0.44827 0.14061 0.37239 0.17708 0.44043 0.32821 0.6199 0.62212 0.99391 3.9566-0.0052 4.472 0.32467 0.3333 0.38396 0.33247 0.34695 0.71321 0.64504 1.1307 0.88522 0.28904 0.16546 0.59386 0.3022 0.91002 0.40824h3.2484c0.31616-0.10604 0.62098-0.24278 0.91002-0.40824 1.568-0.89762 2.534-2.5565 2.5342-4.3517h-10.137z" stop-color="#000000" stroke-miterlimit="2" stroke-width=".79375"/>
  <path d="m5.8508 0.64363c-0.21966 0-0.39688 0.17721-0.39688 0.39688v2.0014a8.3857 1.7612 18.095 0 1 0.83147 0.74104 8.3857 1.7612 18.095 0 1-0.83147-0.41186v4.7361c0 0.21966 0.17721 0.39636 0.39688 0.39636h0.66611c0.21966 0 0.39636-0.1767 0.39636-0.39636v-3.3006c-0.24275 0.12559-0.49851 0.25174-0.76584 0.37775 0.16705-0.21091 0.42871-0.38778 0.76998-0.63717l-0.00413-3.5068c-2.646e-4 -0.21966-0.1767-0.39688-0.39636-0.39688h-0.66611z" stop-color="#000000"/>
  <path id="path1734" d="m7.8207 5.6607c-0.50121-3.5e-5 -0.90753 0.40629-0.9075 0.9075-3.5e-5 0.50121 0.40629 0.90753 0.9075 0.9075 0.50121 3.51e-5 0.90753-0.40629 0.9075-0.9075 3.51e-5 -0.50121-0.40629-0.90753-0.9075-0.9075zm0.54888 0.60701c0.12899 0.082233 0.20869 0.23885 0.17676 0.3896-0.030989 0.14629-0.16081 0.25569-0.30586 0.28309 0.11662-0.056286 0.17858-0.25887 0.19395-0.33348s0.026429-0.2395-0.064844-0.33921z" fill="#ff3250" stop-color="#000000"/>
  <g id="g1973" transform="matrix(2.0951 0 0 2.0951 -7.4172 -4.3667)" stroke-width=".4773">
   <g transform="translate(-2.5862 .69055)" stroke-width=".4773">
    <path d="m10.946 2.5055a1.449 1.1048 0 0 0-0.97626 0.27773 1.449 1.1048 0 0 0-0.48591 0.76437 0.72227 3.4572 72.025 0 1 1.0801-0.62156 0.72227 3.4572 72.025 0 1-0.99377 0.69012 1.449 1.1048 0 0 0 1.0466-0.27575 1.449 1.1048 0 0 0 0.48838-0.82652l4.94e-4 -2.467e-4a1.449 1.1048 0 0 0-4.94e-4 0 1.449 1.1048 0 0 0 0-2.466e-4l-4.93e-4 2.466e-4a1.449 1.1048 0 0 0-0.1586-0.00814z" stop-color="#000000" stroke-miterlimit="2" stroke-width=".37886"/>
   </g>
  </g>
  <g transform="translate(0 .56083)" stroke-width=".68446">
   <use transform="matrix(-1 0 0 1 12.375 -2.074)" xlink:href="#g1973"/>
   <use transform="rotate(180 6.1836 5.5147)" xlink:href="#path1734"/>
   <use transform="matrix(1 0 0 -1 .00013035 7.4078)" xlink:href="#path1734"/>
  </g>
  <circle cx="10.962" cy="9.7445" r="1.1634" fill="none" stop-color="#000000" stroke="#2c8553" stroke-miterlimit="2" stroke-width="1.101"/>
 </g>
</svg>
