<?xml version="1.0" encoding="UTF-8" standalone="no"?>
<!-- Created with Inkscape (http://www.inkscape.org/) -->

<svg
   version="1.1"
   id="svg2"
   width="100%"
   height="100%"
   viewBox="0 0 64 64"
   xml:space="preserve"
   sodipodi:docname="logo.svg"
   inkscape:version="1.2.2 (b0a8486541, 2022-12-01)"
   xmlns:inkscape="http://www.inkscape.org/namespaces/inkscape"
   xmlns:sodipodi="http://sodipodi.sourceforge.net/DTD/sodipodi-0.dtd"
   xmlns="http://www.w3.org/2000/svg"
   xmlns:svg="http://www.w3.org/2000/svg"><sodipodi:namedview
     id="namedview196"
     pagecolor="#ffffff"
     bordercolor="#666666"
     borderopacity="1.0"
     inkscape:showpageshadow="2"
     inkscape:pageopacity="0.0"
     inkscape:pagecheckerboard="0"
     inkscape:deskcolor="#d1d1d1"
     showgrid="false"
     inkscape:zoom="7.2551572"
     inkscape:cx="58.647936"
     inkscape:cy="57.20069"
     inkscape:window-width="1728"
     inkscape:window-height="1003"
     inkscape:window-x="0"
     inkscape:window-y="0"
     inkscape:window-maximized="1"
     inkscape:current-layer="g16664" /><defs
     id="defs6" /><g
     id="g8"
     transform="matrix(2.5734816,0,0,2.5734816,-1047.7801,-491.52441)"
     style="stroke-width:0.388579"><g
       id="g16664"
       transform="matrix(0.8545586,0,0,0.8545586,61.588907,29.034578)"
       style="stroke-width:0.454713"><path
         id="path16991"
         style="fill:#ff3250;fill-opacity:1;stroke:none;stroke-width:0.454713;stroke-opacity:1"
         d="m 417.17266,204.64673 c -0.72212,0.0175 -1.39023,0.79927 -0.94117,1.60953 0.0754,0.13588 0.24796,0.30856 0.38398,0.38396 1.036,0.5742 2.13509,-0.70465 1.37854,-1.60374 -0.20858,-0.24778 -0.46104,-0.36612 -0.71452,-0.38685 -0.0356,-0.004 -0.0714,-0.004 -0.10683,-0.004 z m -0.60917,0.60628 c 0.12628,0.004 0.25751,0.11121 0.22952,0.25552 -0.0195,0.095 -0.0848,0.18993 -0.14726,0.21074 -0.17193,0.0572 -0.35335,-0.2123 -0.25261,-0.37532 0.0291,-0.0472 0.0709,-0.0747 0.11687,-0.0852 0.0174,-0.004 0.0354,-0.006 0.0535,-0.006 z" /><path
         style="fill:#ff3250;fill-opacity:1;stroke:none;stroke-width:0.454713;stroke-opacity:1"
         d="m 421.10971,203.86258 c -0.22958,-0.0211 -0.46869,0.0516 -0.67608,0.25897 -0.50279,0.50282 -0.42333,1.19715 0.17988,1.57296 0.41505,0.25864 0.83517,0.18448 1.19543,-0.21085 0.59303,-0.6509 -0.009,-1.55811 -0.69915,-1.62108 z"
         id="path16987" /><path
         style="display:inline;fill:#2c8553;fill-opacity:1;stroke-width:0.454713"
         d="m 420.09087,199.36892 c -0.12503,-0.0188 -0.22734,-0.0828 -0.22734,-0.14187 0,-0.27715 1.39783,-1.65831 2.04467,-2.0203 0.0795,-0.0446 0.12314,-0.1024 0.097,-0.12867 -0.12099,-0.12086 -1.14589,0.52239 -1.74574,1.09549 -0.35569,0.33983 -0.6681,0.59647 -0.69426,0.57032 -0.2193,-0.21933 0.54056,-1.54613 1.15487,-2.01651 0.69479,-0.53201 2.24378,-0.86215 3.07101,-0.65451 l 0.2214,0.0556 -0.13297,0.18248 c -0.0731,0.10024 -0.31195,0.55509 -0.53065,1.0105 -0.606,1.26189 -1.20417,1.78339 -2.31126,2.01501 -0.4412,0.0923 -0.5311,0.0954 -0.94661,0.0324 z"
         id="path16968" /><path
         style="display:inline;fill:#2c8553;fill-opacity:1;stroke-width:0.454713"
         d="m 417.20901,199.87249 c -0.4394,-0.16147 -0.93641,-0.53308 -1.15418,-0.86314 -0.27185,-0.41205 -0.85029,-1.66479 -0.79441,-1.72047 0.0253,-0.0251 0.38249,-0.0459 0.79373,-0.0459 1.09092,0 1.90495,0.358 2.415,1.06209 0.22139,0.30563 0.52588,1.10313 0.45011,1.17888 -0.021,0.021 -0.26208,-0.17891 -0.53607,-0.44392 -0.49694,-0.4806 -1.23288,-0.9461 -1.40505,-0.88872 -0.05,0.0166 0.0641,0.13699 0.25329,0.26742 0.67539,0.46542 1.45454,1.32412 1.35199,1.49003 -0.0711,0.11513 -1.031,0.0898 -1.37441,-0.0363 z"
         id="path16966" /><path
         style="display:inline;fill:#2c8553;fill-opacity:1;stroke-width:0.454713"
         d="m 421.82793,203.26268 c -0.30685,-0.10008 -0.55359,-0.24495 -0.55359,-0.32485 0,-0.14255 1.18829,-0.86112 1.78245,-1.07784 0.72447,-0.26422 0.76063,-0.31873 0.17117,-0.25788 -0.47033,0.0486 -1.12093,0.31426 -1.73735,0.70963 -0.47086,0.30201 -0.53499,0.25438 -0.26887,-0.1997 0.26564,-0.45328 0.69071,-0.82302 1.24519,-1.0831 0.76677,-0.35964 2.60804,-0.22679 3.05529,0.22044 0.1266,0.12685 -1.42695,1.65283 -1.88603,1.85247 -0.44007,0.19138 -1.44168,0.28048 -1.80826,0.16075 z"
         id="path16964" /><path
         style="display:inline;fill:#2c8553;fill-opacity:1;stroke-width:0.454713"
         d="m 415.27095,204.63682 c -0.55866,-0.11691 -1.02595,-0.42202 -1.73011,-1.12961 -0.37747,-0.37932 -0.67608,-0.69864 -0.66357,-0.70956 0.0121,-0.0106 0.15362,-0.0859 0.31356,-0.16646 1.46399,-0.73779 3.32919,-0.32872 3.93746,0.86359 0.1728,0.33871 0.18846,0.33918 -0.54672,-0.0168 -0.6324,-0.30609 -1.65999,-0.56753 -1.77574,-0.45177 -0.04,0.04 0.14123,0.13232 0.45737,0.23365 1.01088,0.32386 1.93642,0.8706 1.78422,1.05398 -0.20269,0.24423 -1.24608,0.43386 -1.77647,0.32286 z"
         id="path16962" /><g
         id="g418"
         transform="matrix(0.06135803,0,0,0.06135803,407.05596,180.27046)"
         style="stroke-width:7.41082" /><path
         id="path621"
         style="fill:#2c8553;fill-opacity:1;stroke:none;stroke-width:0.454713;stroke-opacity:1"
         d="m 410.81912,210.04963 c 0.83531,0.74938 1.70109,2.63366 2.60838,1.78333 1.75598,-1.66504 5.57541,-3.80881 8.49922,-4.77093 0.55625,-0.18304 0.8528,-0.26523 0.88722,-0.24779 0.0344,0.0174 -0.19334,0.13406 -0.68829,0.34814 -2.91387,1.26029 -5.58251,3.4608 -7.4976,5.18469 -0.66936,0.77079 1.07476,1.48022 1.58023,0.88782 0.84398,-1.09394 3.9335,-2.72971 5.01949,-3.18348 0.38029,-0.15889 0.32317,-0.0905 -0.5453,0.55329 -0.86848,0.64376 -2.61232,1.87674 -3.26121,2.6179 -1.09416,0.96022 1.92516,1.56396 0.10309,1.28979 -2.89851,-0.52348 -5.33695,-1.98913 -7.04804,-4.11728 -0.0107,0.0134 -0.0215,0.0237 -0.032,0.0364 1.92132,2.34449 4.73877,3.94075 7.74078,4.23185 2.76064,0.26768 5.31864,-0.88643 6.89618,-3.11283 l 0.29929,-0.42274 0.52399,-0.0746 c 2.94925,-0.41846 5.04052,-2.46163 4.47341,-4.37128 -0.30876,-1.0397 -1.15053,-1.56607 -2.50003,-1.56397 l -0.71582,8.9e-4 c -4.89124,0.77299 -11.13132,3.04541 -16.34299,4.9308 z m 17.05974,-3.98584 c 1.16671,0.005 1.73198,0.52454 1.61813,1.48581 -0.10167,0.85826 -1.04108,1.76242 -2.30642,2.22028 -0.67299,0.2435 -1.15131,0.32749 -1.09593,0.19183 0.62297,-1.52621 0.81106,-2.15393 0.94584,-3.15901 0.0983,-0.73294 0.1094,-0.74235 0.83838,-0.73891 z" /><path
         style="display:inline;fill:#2c8553;fill-opacity:1;stroke-width:0.454713"
         d="m 417.26883,214.60201 c -4.64019,-0.83803 -8.07175,-4.16835 -9.06586,-8.79844 -0.20905,-0.97363 -0.20912,-3.28674 -1.3e-4,-4.26438 0.9127,-4.2697 4.01448,-7.51911 8.20041,-8.59077 3.57362,-0.9149 7.8244,-0.2942 10.42395,2.1169 2.60162,2.41302 3.81029,5.31138 2.89621,10.24362 -0.37821,-13.14407 -12.49733,-14.70672 -18.47024,-7.49184 -3.65563,4.34276 -0.61668,14.60956 6.50553,15.49253 0.78382,0.0824 2.02883,1.35737 1.71888,1.36556 l -0.95747,0.0253 -0.38349,-0.005 c -0.21093,-0.003 -0.60142,-0.0449 -0.86779,-0.093 z"
         id="path619" /><path
         id="path1625"
         style="fill:#ff3250;fill-opacity:1;stroke:none;stroke-width:0.454713;stroke-opacity:1"
         d="m 420.69918,199.72728 c 0.72212,0.0175 1.39023,0.79927 0.94117,1.60953 -0.0754,0.13588 -0.24796,0.30856 -0.38398,0.38396 -1.036,0.5742 -2.13509,-0.70465 -1.37854,-1.60374 0.20858,-0.24778 0.46104,-0.36612 0.71452,-0.38685 0.0356,-0.004 0.0714,-0.004 0.10683,-0.004 z m 0.60917,0.60628 c -0.12628,0.004 -0.25751,0.11121 -0.22952,0.25552 0.0195,0.095 0.0848,0.18993 0.14726,0.21074 0.17193,0.0572 0.35335,-0.2123 0.25261,-0.37532 -0.0291,-0.0472 -0.0709,-0.0747 -0.11687,-0.0852 -0.0174,-0.004 -0.0354,-0.006 -0.0535,-0.006 z" /><path
         d="m 419.04094,200.68912 c -0.47474,-0.56103 -1.17659,-0.6583 -1.5741,-0.21913 l -0.2279,0.25066 h 0.26997 c 0.14901,0 0.27171,0.0762 0.27171,0.16837 0,0.2905 -0.16066,0.34284 -0.39616,0.12969 -0.28172,-0.25486 -0.43528,0.006 -0.30676,0.5171 0.21617,0.86151 1.22335,1.09578 1.8458,0.42945"
         style="fill:#ff3250;fill-opacity:1;stroke:none;stroke-width:0.454713;stroke-opacity:1"
         id="path1635"
         sodipodi:nodetypes="cccssccc" /><path
         d="m 419.68135,198.93214 c -0.0528,0.003 -0.14836,0.21083 -0.26738,0.63628 -0.14981,0.53456 -0.29937,0.63341 -0.57183,0.37853 -0.12696,-0.1188 -0.13857,-0.0931 -0.0693,0.14491 0.0463,0.15871 0.111,0.44415 0.14329,0.63467 0.0223,0.36823 0.003,1.49733 -0.0804,2.29058 0,1.18082 -0.0466,1.27738 -0.2886,1.19067 -0.0399,-0.0646 -1.19345,-0.17194 -1.29093,-0.17194 -0.11915,0 0.817,0.33178 1.13222,0.70768 0.28183,0.33665 0.61158,1.1012 0.73148,1.40201 0.1199,0.30081 0.33562,0.93677 0.46619,1.31449 0.28065,0.81169 0.16834,-2.16041 0.17583,-2.85788 0.002,-0.16323 0.20644,-0.54749 0.39494,-0.79652 0.66314,-0.72114 1.9296,-1.87962 -0.22955,-0.35143 -1.00951,-0.0245 -0.45265,-2.52672 -0.27171,-3.67963 0.084,-0.50956 0.0887,-0.79483 0.0402,-0.836 v -0.002 c -0.003,-0.003 -0.009,-0.006 -0.0145,-0.006 z"
         style="fill:#2c8553;fill-opacity:1;stroke:none;stroke-width:0.454713;stroke-opacity:1"
         id="path17087"
         sodipodi:nodetypes="cccccccscsccccccccc" /></g></g></svg>
