<svg viewBox="0 0 100 100" class="w-8 h-8 text-green-600">
  <path d="m38.984 34.164c0 6.0742 4.9414 11.016 11.016 11.016s11.016-4.9414 11.016-11.016c0-6.0742-4.9414-11.016-11.016-11.016s-11.016 4.9414-11.016 11.016zm11.016-8.2617c4.5547 0 8.2617 3.707 8.2617 8.2617 0 4.5547-3.707 8.2617-8.2617 8.2617s-8.2617-3.707-8.2617-8.2617c0-4.5547 3.707-8.2617 8.2617-8.2617zm0-5.5078c-0.76172 0-1.3789-0.61719-1.3789-1.3789v-8.2617c0-0.76172 0.61719-1.3789 1.3789-1.3789s1.3789 0.61719 1.3789 1.3789v8.2617c0 0.76172-0.61719 1.3789-1.3789 1.3789zm-9.7383 2.0859c0.53906 0.53906 0.53906 1.4102 0 1.9492-0.53906 0.53906-1.4102 0.53906-1.9492 0l-3.8945-3.8945c-0.53906-0.53906-0.53906-1.4102 0-1.9492 0.53906-0.53906 1.4102-0.53906 1.9492 0zm0 21.422c0.53906 0.53906 0.53906 1.4102 0 1.9492l-3.8945 3.8945c-0.53906 0.53906-1.4102 0.53906-1.9492 0-0.53906-0.53906-0.53906-1.4102 0-1.9492l3.8945-3.8945c0.53906-0.53906 1.4102-0.53906 1.9492 0zm25.316-25.316c0.53906 0.53906 0.53906 1.4102 0 1.9492l-3.8945 3.8945c-0.53906 0.53906-1.4102 0.53906-1.9492 0-0.53906-0.53906-0.53906-1.4102 0-1.9492l3.8945-3.8945c0.53906-0.53906 1.4102-0.53906 1.9492 0zm-3.8945 25.316 3.8945 3.8945c0.53906 0.53906 0.53906 1.4102 0 1.9492-0.53906 0.53906-1.4102 0.53906-1.9492 0l-3.8945-3.8945c-0.53906-0.53906-0.53906-1.4102 0-1.9492 0.53906-0.53906 1.4102-0.53906 1.9492 0zm-11.684 4.0312c0.76172 0 1.3789 0.61719 1.3789 1.3789v8.2617c0 0.76172-0.61719 1.3789-1.3789 1.3789s-1.3789-0.61719-1.3789-1.3789v-8.2617c0-0.76172 0.61719-1.3789 1.3789-1.3789zm23.41-12.395h-8.2617c-0.76172 0-1.3789-0.61719-1.3789-1.3789 0-0.76172 0.61719-1.3789 1.3789-1.3789h8.2617c0.76172 0 1.3789 0.61719 1.3789 1.3789 0 0.76172-0.61719 1.3789-1.3789 1.3789zm-46.82-2.7539h8.2617c0.76172 0 1.3789 0.61719 1.3789 1.3789 0 0.76172-0.61719 1.3789-1.3789 1.3789h-8.2617c-0.76172 0-1.3789-0.61719-1.3789-1.3789 0-0.76172 0.61719-1.3789 1.3789-1.3789zm-10.176 46.191c-0.23437 0.45703-0.19531 1.0117 0.10547 1.4297l6.0625 8.4883c0.77344 1.082 2.0312 1.7305 3.3633 1.7305h48.117c1.332 0 2.5859-0.64844 3.3633-1.7305l6.0625-8.4883c0.30078-0.41797 0.33984-0.97266 0.10547-1.4297-0.23438-0.45703-0.70703-0.74609-1.2227-0.74609h-5.8477c3.8633-3.9023 6.4258-10.52 2.6289-14.316-1.6445-1.6445-4.0938-2.2188-6.9062-1.6211-2.0195 0.42969-4.0625 1.4492-5.9102 2.918-1.5625-2.8047-4.6836-3.5938-7.8594-2.918-2.0195 0.42969-4.0625 1.4492-5.9102 2.918-1.5625-2.8047-4.6836-3.5938-7.8594-2.918-2.0195 0.42969-4.0625 1.4492-5.9102 2.918-1.5664-2.8086-4.6836-3.5938-7.8594-2.918-2.5977 0.55078-5.2344 2.0664-7.4219 4.2578-3.5938 3.5859-5.1953 8.2188-4.1758 11.684h-1.6914c-0.51563 0-0.98828 0.28906-1.2227 0.74609zm58.766 8.3164c-0.25781 0.35938-0.67578 0.57812-1.1211 0.57812h-48.117c-0.44531 0-0.86328-0.21484-1.1211-0.57812l-4.5078-6.3086h59.371l-4.5078 6.3086zm-31.723-13.57c1.1914-0.30859 2.6406-0.875 3.8711-1.5938-0.55078 1.4336-0.86328 3.0508-0.74219 4.5742-0.62109 0.57031-1.2773 1.082-1.9648 1.5234h-7.9297c1.7266-2.2734 4.1328-3.8203 6.7695-4.5078zm13.77 0c1.2305-0.32031 2.6953-0.90625 3.8711-1.5938-0.55078 1.4336-0.86328 3.0508-0.74219 4.5742-0.62109 0.57031-1.2773 1.082-1.9648 1.5234h-7.9297c1.7422-2.2891 4.1523-3.8242 6.7695-4.5078zm-24.414 2.9805c-0.62109 0.57031-1.2773 1.082-1.9648 1.5234h-7.9297c1.75-2.2969 4.1445-3.8242 6.7695-4.5039 1.3789-0.35938 2.6758-0.90625 3.875-1.6055-0.55469 1.4492-0.87109 3.0547-0.75 4.5859zm39.348 1.5234h-7.9297c1.7031-2.2422 4.0938-3.8086 6.7695-4.5078 2.6211-0.67969 5.1953-2.1289 7.1797-4.2109-0.32422 2.75-2.4727 6.4375-6.0195 8.7188zm0.64844-13.246c1.6641-0.35547 3.5156-0.21484 4.5977 1.1094-1.7305 2.4922-4.2227 4.2188-7.0977 4.9648-2.6953 0.69922-5.1758 2.1328-7.1797 4.2148 0.48047-4.2305 4.8945-9.2695 9.6797-10.289zm-13.77 0c1.6641-0.35547 3.5156-0.21484 4.5977 1.1094-1.7305 2.4922-4.2227 4.2188-7.0977 4.9648-2.6953 0.69922-5.1758 2.1328-7.1797 4.2148 0.48828-4.3125 4.9648-9.2852 9.6797-10.289zm-13.77 0c1.6797-0.35938 3.5195-0.20703 4.5977 1.1094-1.7578 2.5312-4.332 4.2461-7.0977 4.9648-2.6953 0.69922-5.1758 2.1328-7.1797 4.2148 0.49609-4.3711 5.0234-9.2969 9.6797-10.289zm-19.82 3.5117c1.8203-1.8203 3.9648-3.0664 6.0469-3.5117 1.6836-0.35938 3.5156-0.21484 4.5938 1.1211-1.6992 2.4453-4.1797 4.1992-7.0898 4.9531-2.6289 0.67969-5.125 2.0742-7.1758 4.2148 0.26172-2.1797 1.5664-4.7227 3.625-6.7773z" fill="currentColor"/>
</svg>
