<svg viewBox="0 0 100 100" class="w-8 h-8 text-orange-600">
 <path stroke="currentColor"  d="m47.465 20.629c1.5859 0 3.0859-0.76172 4.0117-2.0391v-0.003906c0.078126-0.10547 0.15234-0.21484 0.21875-0.32422 0.48828-0.78125 0.74219-1.6758 0.74219-2.6094 0-0.125-0.003906-0.24219-0.015625-0.35938-0.19922-2.6016-2.375-4.6172-4.9609-4.6172-2.5859 0-4.7656 2.0156-4.9609 4.5938v0.03125c-0.011719 0.11719-0.015625 0.23047-0.015625 0.35156 0 1.0664 0.33203 2.082 0.96094 2.9336 0.92969 1.2812 2.4297 2.043 4.0156 2.043z"/>
 <path stroke="currentColor"  d="m58.691 38.734c0.35547-0.027344 0.71875-0.042969 1.082-0.050781 0.085937 0 0.17578 0.003906 0.26172 0.003906 0.30469 0 0.60938 0.003906 0.91406 0.019531h0.11328v-10.352c0-5.0508-2.7969-9.6484-7.2148-12 0 0.039062-0.011718 0.078125-0.019531 0.11719-0.015625 0.13281-0.035156 0.26172-0.058594 0.39062-0.015625 0.066407-0.027343 0.13281-0.039062 0.19531-0.035157 0.14453-0.070313 0.28516-0.11328 0.42578-0.011719 0.042969-0.023438 0.089844-0.039063 0.13281-0.058594 0.18359-0.125 0.36328-0.19922 0.53906-0.019531 0.042969-0.039062 0.082031-0.058594 0.12109-0.058593 0.13672-0.125 0.26953-0.19531 0.39844-0.011719 0.023438-0.019531 0.046875-0.035156 0.070313 3.418 2 5.5117 5.6094 5.5117 9.6094v10.383c0.027344-0.003906 0.058594-0.003906 0.089844-0.003906z"/>
 <path stroke="currentColor"  d="m60.039 64.207c3.8828 0 7.043-3.1602 7.043-7.043 0-3.3086-2.2461-6.1289-5.4609-6.8633-0.015625 0-0.03125-0.007812-0.050782-0.011719-0.11719-0.027343-0.23828-0.050781-0.35937-0.070312-0.042969-0.007812-0.085938-0.011719-0.125-0.019531-0.10156-0.015625-0.20313-0.027344-0.30469-0.039063-0.039062-0.003906-0.078125-0.007812-0.12109-0.011718-0.10547-0.007813-0.21094-0.015626-0.31641-0.019532h-0.11328c-0.10156-0.003906-0.20312-0.003906-0.30859 0h-0.19141c-0.09375 0.003906-0.19141 0.007813-0.28516 0.019532-0.058593 0.003906-0.11719 0.011718-0.17578 0.015624-0.09375 0.011719-0.19141 0.019532-0.28906 0.035157-0.070313 0.011719-0.13672 0.023437-0.20703 0.039062-0.082032 0.011719-0.16406 0.027344-0.24219 0.042969-0.15234 0.035156-0.30469 0.070312-0.44922 0.11328-2.9961 0.86719-5.0859 3.6484-5.0859 6.7695 0 3.8828 3.1602 7.043 7.043 7.043z"/>
 <path stroke="currentColor"  d="m58.957 48.746c0.10156-0.011719 0.20312-0.027344 0.30469-0.035156 0.10156-0.007813 0.20703-0.011719 0.30859-0.019532 0.16016-0.007812 0.32422-0.011718 0.48828-0.011718 0.10938 0 0.22266 0 0.33594 0.003906 0.085938 0.003906 0.17188 0.011718 0.26172 0.019531 0.10547 0.003906 0.21094 0.011719 0.31641 0.023437 0.03125 0.003907 0.058594 0.003907 0.089844 0.007813v-4.0938c-0.039062 0-0.078125-0.007813-0.11719-0.011719-0.074218-0.003906-0.14453-0.007812-0.21875-0.011718-0.18359-0.007813-0.36719-0.015626-0.55078-0.015626-0.070312 0-0.14062-0.003906-0.21094-0.003906-0.30078 0.003906-0.59766 0.015625-0.89062 0.039063-0.058594 0.003906-0.11328 0.007812-0.16797 0.011719-0.10547 0.011718-0.20312 0.027343-0.30469 0.039062v4.1094c0.027344-0.007813 0.054688-0.007813 0.078126-0.011719 0.09375-0.015625 0.18359-0.027344 0.27734-0.039062z"/>
 <path stroke="currentColor"  d="m91.332 93.461c0.44531 0.44531 1.2188 0.44531 1.6641 0l3.3398-3.3398c0.45703-0.46094 0.45703-1.207 0-1.6641l-11.16-11.16c-0.22656-0.22656-0.53125-0.34375-0.83594-0.34375-0.21875 0-0.4375 0.0625-0.62891 0.18359-0.078126 0.046875-0.13281 0.09375-0.19141 0.15234-0.003906 0-0.003906 0.003907-0.007812 0.003907l-3.3398 3.3398c-0.054687 0.058594-0.10938 0.125-0.15234 0.19531v0.003906c-0.30078 0.46484-0.23047 1.0781 0.15625 1.4688l11.16 11.16z"/>
 <path stroke="currentColor"  d="m60.039 74.195c2.3906 0 4.6992-0.48828 6.8672-1.4453l8.7188-8.7188c0.95703-2.168 1.4453-4.4805 1.4453-6.8672 0-8.8125-6.6016-16.102-15.352-16.957h-0.003906c-0.29297-0.027343-0.59375-0.046875-0.89453-0.0625h-0.26172c-0.21094-0.007812-0.42188-0.011719-0.62891-0.011719-0.20703 0.003907-0.41016 0.011719-0.61328 0.019532-0.12891 0.007812-0.25781 0.007812-0.38281 0.015625-0.32812 0.019531-0.64844 0.050781-0.96484 0.089843-8.5352 1.0312-14.965 8.3008-14.965 16.91 0 9.3906 7.6406 17.031 17.035 17.031zm-2.2773-30.859c0.98828-0.16406 2.0352-0.21875 3.0781-0.16016 0.34766 0.019531 0.69531 0.050781 1.0391 0.09375 5.2031 0.68359 9.4492 4.2148 11.246 8.8945 0.074219 0.19531 0.14453 0.39063 0.21094 0.58984 0.13281 0.39844 0.24609 0.80078 0.34375 1.2148 0.24219 1.0273 0.37109 2.0977 0.37109 3.1953 0 7.7227-6.2852 14.012-14.012 14.012-7.7266 0-14.012-6.2891-14.012-14.012 0-6.9023 4.9336-12.719 11.734-13.828z"/>
 <path stroke="currentColor"  d="m74.246 74.258 2.8945-2.8945 5.1211 5.125-2.8945 2.8945z"/>
 <path stroke="currentColor"  d="m78.676 67.77-2.3711-2.375-8.0352 8.0352 2.375 2.3711z"/>
 <path stroke="currentColor"  d="m12.133 34.734c-0.57422-0.14844-1.1719-0.22266-1.7695-0.22266-0.59766 0-1.1953 0.074219-1.7734 0.22266-3.1016 0.80469-5.2695 3.6094-5.2695 6.8203 0 3.2109 2.168 6.0117 5.2695 6.8164 0.28906 0.074218 0.58203 0.13281 0.87891 0.16797 0.88672 0.11328 1.8008 0.054688 2.668-0.16797 3.1016-0.80469 5.2695-3.6055 5.2695-6.8164 0-3.2109-2.168-6.0156-5.2734-6.8203zm2.7383 4.6719-5.3203 5.3203c-0.14062 0.14063-0.32422 0.21094-0.51172 0.21094s-0.37109-0.070312-0.51172-0.21094l-2.6758-2.6758c-0.28125-0.28125-0.28125-0.73828 0-1.0234s0.74219-0.28125 1.0234 0l2.1641 2.1641 4.8086-4.8086c0.28125-0.28125 0.73828-0.28125 1.0234 0 0.28125 0.28125 0.28125 0.73828 0 1.0234z"/>
 <path stroke="currentColor"  d="m22.844 67.543c-1.9219 0-3.6875 1.1211-4.5078 2.8555-0.3125 0.66016-0.46875 1.3711-0.46875 2.1211 0 0.12891 0.003906 0.25781 0.015624 0.38672 0 0.042969 0.007813 0.082031 0.011719 0.125 0.011719 0.085938 0.019531 0.17188 0.03125 0.25781 0.007813 0.050782 0.019531 0.097657 0.027344 0.14844 0.015625 0.074219 0.027344 0.15234 0.046875 0.22656 0.011719 0.054688 0.027344 0.10938 0.042969 0.16016 0.015625 0.066406 0.035156 0.13281 0.054687 0.19922 0.003906 0.015624 0.011719 0.027343 0.015625 0.039062 0.66797 2.0508 2.5664 3.4297 4.7305 3.4297 1.0859 0 2.1172-0.36328 2.957-0.98438 0.83984-0.62109 1.4883-1.5 1.8047-2.5391 0.10547-0.35156 0.17188-0.71484 0.19922-1.082 0.011718-0.12109 0.015624-0.24609 0.015624-0.36719 0-0.77734-0.17187-1.5195-0.51562-2.207-0.84375-1.7109-2.5547-2.7695-4.4609-2.7695z"/>
 <path stroke="currentColor"  d="m36.328 60.988v-32.633c0-4 2.0898-7.6094 5.5078-9.6094-0.011719-0.019532-0.019532-0.042969-0.03125-0.066406-0.074219-0.13672-0.14063-0.27344-0.20313-0.41406-0.015624-0.035156-0.035156-0.070313-0.050781-0.10547-0.074219-0.17969-0.14453-0.35938-0.20312-0.54688-0.011718-0.039062-0.023437-0.078125-0.035156-0.12109-0.042969-0.14453-0.082031-0.28906-0.11328-0.43359-0.015625-0.066406-0.027344-0.12891-0.039063-0.19141-0.023437-0.13281-0.042968-0.26172-0.0625-0.39453-0.003906-0.039062-0.011718-0.078125-0.015625-0.11719-4.418 2.3516-7.2148 6.9492-7.2148 12v32.633c0 3.7344-1.9023 7.2383-5.0039 9.2891 0.003907 0.011718 0.007813 0.027344 0.015625 0.039062 0.015625 0.050782 0.027344 0.097656 0.046875 0.14453 0.054688 0.16406 0.10156 0.32812 0.14453 0.49609 0.019532 0.070313 0.035157 0.14453 0.046876 0.21484 0.035156 0.15625 0.0625 0.3125 0.082031 0.46875 0.011719 0.066406 0.019531 0.13672 0.027343 0.20312 0.023438 0.22266 0.039063 0.44531 0.039063 0.67578 0 0.13281-0.003906 0.26172-0.011719 0.39453 4.3398-2.3711 7.0742-6.918 7.0742-11.926z"/>
 <path stroke="currentColor"  d="m16.48 71.68c0.019531-0.15234 0.042969-0.30078 0.074219-0.45313 0.011718-0.066406 0.027343-0.13281 0.042968-0.19922 0.039063-0.17188 0.089844-0.33984 0.14453-0.50781 0.007812-0.035156 0.019531-0.070312 0.03125-0.10156 0-0.007813 0.003906-0.015625 0.003906-0.023438-3.2148-2.0352-5.1836-5.582-5.1836-9.4062v-11.035c-0.027344 0.003906-0.050781 0.003906-0.078125 0.007813-0.12109 0.015624-0.24609 0.027343-0.36719 0.039062-0.070313 0.007812-0.13672 0.015625-0.20703 0.019531-0.19141 0.015625-0.38672 0.023438-0.57812 0.023438-0.19141 0-0.38672-0.007813-0.57812-0.023438-0.070312-0.003906-0.13672-0.011719-0.20312-0.019531-0.125-0.011719-0.25-0.023438-0.375-0.039062-0.023437 0-0.050781 0-0.074219-0.007813v11.035c0 5.125 2.8281 9.7227 7.3086 12.055v-0.007813c-0.011718-0.17188-0.019531-0.34375-0.019531-0.51562 0-0.21875 0.011719-0.43359 0.035156-0.64453 0.003907-0.066406 0.015625-0.12891 0.023438-0.19531z"/>
</svg>
