<svg viewBox="0 0 100 100" class="w-8 h-8 text-purple-600 dark:text-green-400">
  <path d="m41.07 47.789c0.082032-8.1992-1.7539-14.266-5.5039-18.215-4.0156-4.2422-10.336-6.1406-18.938-5.7227-0.4375 9.2656 1.3789 16.023 5.4414 20.305 3.707 3.9141 9.375 5.832 16.984 5.7773-3.2969-4.8867-7.2305-9.2031-11.645-12.578-0.62891-0.48047-0.74609-1.3828-0.26562-2.0117s1.3828-0.75 2.0078-0.26953c4.4961 3.4375 8.5117 7.7812 11.918 12.715zm46.254 46.828c0.80859-7.7734-6.2148-14.117-13.879-12.52-0.78906 0.16406-1.543 0.40625-2.2695 0.72266-0.81641 0.35938-1.7344-0.12109-1.9609-0.96484-1.2344-4.1953-3.7969-7.8164-7.2109-10.375-7.0938-5.3164-16.902-5.3164-24 0-3.4258 2.5703-6.0039 6.2109-7.2305 10.426-0.23438 0.83203-1.1523 1.2617-1.9453 0.91406h-0.007813c-7.5312-3.2969-16.195 2.1875-16.195 10.605l0.054688 1.1914h74.648zm-77.535 0c-0.85547-10.215 8.957-18.031 18.711-14.977 2.8594-7.8047 9.7812-13.504 18.031-14.762-1.5-4.2422-3.4062-8.3281-5.6758-12.117-9.3281 0.40234-16.285-1.7969-20.863-6.625-4.8125-5.0781-6.875-12.965-6.1602-23.699 0.027344-0.72266 0.60156-1.3242 1.3359-1.375 10.137-0.73828 17.648 1.4258 22.48 6.5312 4.8125 5.0781 6.875 12.965 6.1602 23.699-0.007813 0.20312-0.0625 0.39844-0.14453 0.57422 1.6992 2.9062 3.1992 5.9688 4.4766 9.1367 2.3164-6.0703 5.2148-11.898 8.6016-17.305-0.91797-14.543 1.9062-25.227 8.4219-32.102 6.6055-6.9727 16.895-9.9219 30.812-8.9062 0.73438 0.050782 1.3008 0.65234 1.3359 1.375 0.98828 14.762-1.8242 25.59-8.4023 32.527-6.4688 6.8242-16.469 9.7969-29.938 8.9648-3.6797 5.918-6.7383 12.352-9.1016 19.055 9.7383-0.054687 18.348 6.043 21.637 15.023 9.7578-3.0547 19.566 4.7656 18.703 14.977h5.8594c0.78906 0 1.4336 0.64453 1.4336 1.4414 0 0.79687-0.64453 1.4414-1.4336 1.4414l-92.133 0.003906c-0.78906 0-1.4336-0.64453-1.4336-1.4414s0.64453-1.4414 1.4336-1.4414zm49.668-55.008c4.7852-6.8125 10.391-12.812 16.648-17.598 0.62891-0.48047 1.5273-0.35938 2.0078 0.26953 0.48047 0.63281 0.36328 1.5312-0.27344 2.0117-6.4766 4.9531-12.254 11.305-17.078 18.477 11.762 0.45703 20.465-2.25 26.062-8.1562 5.8242-6.1445 8.3945-15.84 7.6836-29.141-12.383-0.69141-21.48 1.9922-27.27 8.0977-5.3594 5.6523-7.9648 14.32-7.7852 26.031z" fill-rule="evenodd" fill="currentColor"/>
</svg>
