<?xml version="1.0" encoding="UTF-8"?>
<!-- Created with Inkscape (http://www.inkscape.org/) -->
<svg width="66.157" height="12.205" version="1.1" viewBox="0 0 66.157 12.205" xmlns="http://www.w3.org/2000/svg" xmlns:xlink="http://www.w3.org/1999/xlink">
 <g transform="translate(-1.1351 -.41182)" fill="#2c8553">
  <path d="m1.1353 7.776c8.837e-4 0.58546 0.10494 1.1663 0.30747 1.7162 6.9935 0.019541 5.7011 0.44827 0.14061 0.37239 0.17708 0.44043 0.32821 0.6199 0.62212 0.99391 3.9566-0.0052 4.472 0.32467 0.3333 0.38396 0.33247 0.34695 0.71321 0.64504 1.1307 0.88522 0.28904 0.16546 0.59386 0.3022 0.91002 0.40824h3.2484c0.31616-0.10604 0.62098-0.24278 0.91002-0.40824 1.568-0.89762 2.534-2.5565 2.5342-4.3517h-10.137z" stop-color="#000000" stroke-miterlimit="2" stroke-width=".79375"/>
  <path d="m5.8508 0.64363c-0.21966 0-0.39688 0.17721-0.39688 0.39688v2.0014a8.3857 1.7612 18.095 0 1 0.83147 0.74104 8.3857 1.7612 18.095 0 1-0.83147-0.41186v4.7361c0 0.21966 0.17721 0.39636 0.39688 0.39636h0.66611c0.21966 0 0.39636-0.1767 0.39636-0.39636v-3.3006c-0.24275 0.12559-0.49851 0.25174-0.76584 0.37775 0.16705-0.21091 0.42871-0.38778 0.76998-0.63717l-0.00413-3.5068c-2.646e-4 -0.21966-0.1767-0.39688-0.39636-0.39688h-0.66611z" stop-color="#000000"/>
  <path id="path1734" d="m7.8207 5.6607c-0.50121-3.5e-5 -0.90753 0.40629-0.9075 0.9075-3.5e-5 0.50121 0.40629 0.90753 0.9075 0.9075 0.50121 3.51e-5 0.90753-0.40629 0.9075-0.9075 3.51e-5 -0.50121-0.40629-0.90753-0.9075-0.9075zm0.54888 0.60701c0.12899 0.082233 0.20869 0.23885 0.17676 0.3896-0.030989 0.14629-0.16081 0.25569-0.30586 0.28309 0.11662-0.056286 0.17858-0.25887 0.19395-0.33348s0.026429-0.2395-0.064844-0.33921z" fill="#ff3250" stop-color="#000000"/>
  <g id="g1973" transform="matrix(2.0951,0,0,2.0951,-7.4172,-4.3667)" stroke-width=".4773">
   <g transform="translate(-2.5862 .69055)" stroke-width=".4773">
    <path d="m10.946 2.5055a1.449 1.1048 0 0 0-0.97626 0.27773 1.449 1.1048 0 0 0-0.48591 0.76437 0.72227 3.4572 72.025 0 1 1.0801-0.62156 0.72227 3.4572 72.025 0 1-0.99377 0.69012 1.449 1.1048 0 0 0 1.0466-0.27575 1.449 1.1048 0 0 0 0.48838-0.82652l4.94e-4 -2.467e-4a1.449 1.1048 0 0 0-4.94e-4 0 1.449 1.1048 0 0 0 0-2.466e-4l-4.93e-4 2.466e-4a1.449 1.1048 0 0 0-0.1586-0.00814z" stop-color="#000000" stroke-miterlimit="2" stroke-width=".37886"/>
   </g>
  </g>
  <g transform="translate(0 .56083)" stroke-width=".68446">
   <use transform="matrix(-1,0,0,1,12.375,-2.074)" xlink:href="#g1973"/>
   <use transform="rotate(180,6.1836,5.5147)" xlink:href="#path1734"/>
   <use transform="matrix(1,0,0,-1,1.3035e-4,7.4078)" xlink:href="#path1734"/>
  </g>
  <circle cx="10.962" cy="9.7445" r="1.1634" fill="none" stop-color="#000000" stroke="#2c8553" stroke-miterlimit="2" stroke-width="1.101"/>
 </g>
 <g aria-label="kissaten">
  <path d="m16.593 0.52333q0.29333-0.36 0.70666-0.4 0.41333-0.04 0.8 0.13333 0.38666 0.16 0.65333 0.50667 0.28 0.33333 0.30667 0.74666l-0.12 0.38667q0.14667 0.17333 0.25333 0.28 0.12 0.10667 0.13333 0.33333 0.08 0.18667-0.66666 1.48-0.30667 0.53333-0.65333 1.12-0.33333 0.57333-0.54667 1.0267 0.16-0.04 0.32-0.066666 0.16-0.026667 0.32-0.066666 0.98666-0.25333 1.3333-0.25333 0.34667-0.013333 0.57333 0.066667 0.61333 0.24 0.64 0.74666-0.18667 0.44-1.4 1.2267-0.28 0.17333-0.45333 0.29333l-1.16 0.82666q-0.09333 0.14667-0.13333 0.28v0.013332q0.02667 0.066667 0.33333 0.18667 0.32 0.12 0.54666 0.21333 0.53333 0.24 0.94666 0.65333 0.13333 0.14667 0.17333 0.44 0.04 0.28-0.09333 0.52-0.12 0.24-0.44 0.34667t-0.89333-0.09333q-0.84-0.37333-1.9867-1.6667-0.13333 0.46667-0.26667 0.92-0.12 0.44-0.26667 0.90666-0.2 0.45333-0.93333 0.42667-0.29333 0-0.53333-0.12-0.22667-0.12-0.26667-0.32-0.10667-0.29333-0.10667-0.44 0-0.13333 0.06667-0.32 0.30667-0.77333 0.38666-1.2267 0.08-0.46667 0.10667-0.54667-0.37333-0.24-0.44-0.76-0.08-0.50667 0.24-0.90666 0.42667-0.16 0.61333-0.24 0.08-0.50667 0.26667-1.0933 0.33333-1.0533 0.50666-1.8267 0.18667-0.77333 0.52-1.7467 0.34667-0.98666 0.61333-1.9867z"/>
  <path d="m22.073 5.2167q0.17333-0.44 0.82666-0.6 0.61333-0.16 1.1467 0.04 0.54666 0.21333 0.49333 0.69333-0.14667 0.46667-0.37333 1.1467-0.21333 0.66666-0.41333 1.3733-0.53333 1.8133-0.61333 2.56-0.2 1.2-0.66666 1.2933-0.13333 0.02667-0.25333 0.04-0.29333 0.01333-0.37333 0.16-0.08 0.14667-0.26667 0.21333-0.18667 0.08-0.41333 0.06667-0.21333 0-0.44-0.10667-0.22667-0.09333-0.38666-0.28-0.37333-0.45333-0.14667-1.2133 0.21333-1.4533 1.08-3.6933 0.41333-1.1067 0.8-1.6933zm2.52-2q-0.65333 0.13333-1.0667-0.08-0.4-0.21333-0.46666-0.50667-0.06667-0.30667 0.18667-0.62666 0.29333-0.4 0.88-0.52 0.26667-0.026667 0.38666-0.026667 0.12 0 0.29333 0.053333 0.44 0.04 0.57333 0.38667 0.18667 0.29333 0.02667 0.66666-0.14667 0.37333-0.81333 0.65333z"/>
  <path d="m29.42 11.31q-0.52 0.42667-1.24 0.64-0.70666 0.22667-1.4267 0.24-0.72 0.01333-1.3467-0.17333-0.62666-0.18667-0.98666-0.58666-0.42667-0.45333-0.29333-0.90666 0.06667-0.18667 0.24-0.29333 0.16-0.10667 0.4-0.05333 0.16 0.01333 0.22667-0.08 0.08-0.10667 0.13333-0.22667 0.05333-0.13333 0.12-0.24 0.06667-0.12 0.21333-0.12 2.3467 0.066667 2.44-0.41333-0.16-0.14667-0.4-0.25334-0.22667-0.10667-0.46666-0.21333-0.58666-0.26667-0.78666-0.58667-0.25333-0.13333-0.38667-0.64-0.066666-0.22667-0.066666-0.46667t0.08-0.44q-0.04-0.52 0.64-1.1467 0.18667-0.17333 0.46667-0.37333 0.28-0.2 0.84-0.38667 0.56-0.18667 1.1067-0.26667 0.56-0.093333 1-0.066667 0.45333 0.026667 0.64 0.21333 0.2 0.18667 0.30667 0.46667 0.12 0.28 0.08 0.54667-0.10667 0.6-0.98666 0.82666-1.1067 0.16-1.0667 0.29333 0 0.026667-0.09333 0.066667 1.0267 0.70666 1.4267 1.3867 0.54666 0.93333 0.16 2.08 0.06667 0.37333-0.66666 0.93333-0.17333 0.13333-0.30667 0.24z"/>
  <path d="m36.167 11.31q-0.52 0.42667-1.24 0.64-0.70666 0.22667-1.4267 0.24-0.72 0.01333-1.3467-0.17333-0.62667-0.18667-0.98666-0.58666-0.42666-0.45333-0.29333-0.90666 0.06667-0.18667 0.24-0.29333 0.16-0.10667 0.4-0.05333 0.16 0.01333 0.22667-0.08 0.08-0.10667 0.13333-0.22667 0.05333-0.13333 0.12-0.24 0.06667-0.12 0.21333-0.12 2.3467 0.066667 2.44-0.41333-0.16-0.14667-0.4-0.25333-0.22667-0.10667-0.46667-0.21334-0.58666-0.26667-0.78666-0.58667-0.25333-0.13333-0.38666-0.64-0.066667-0.22667-0.066667-0.46667t0.08-0.44q-0.04-0.52 0.64-1.1467 0.18667-0.17333 0.46667-0.37333t0.84-0.38667q0.56-0.18667 1.1067-0.26667 0.56-0.093333 1-0.066667 0.45333 0.026667 0.64 0.21333 0.2 0.18667 0.30667 0.46667 0.12 0.28 0.08 0.54667-0.10667 0.6-0.98666 0.82666-1.1067 0.16-1.0667 0.29333 0 0.026667-0.09333 0.066667 1.0267 0.70666 1.4267 1.3867 0.54666 0.93333 0.16 2.08 0.06667 0.37333-0.66666 0.93333-0.17333 0.13333-0.30667 0.24z"/>
  <path d="m44.193 5.27 0.05333 0.013333q0.02667 0 0.02667 0.013333 0.34667-0.13333 0.57333 0.2 0.14667 0.22667 0.22667 0.69333 0.02667 0.64-0.13333 1.7733-0.30667 2.2933-0.33333 2.7333 0.02667 0.46666-0.57333 0.64-0.52 0.16-1.04-0.01333-0.54666-0.18667-0.45333-0.57333-0.10667 0.2-0.21333 0.28-0.10667 0.09333-0.42667 0.24-0.30666 0.16-0.88 0.25333-0.57333 0.10667-1.1467 0.05333-0.57333-0.04-1.0533-0.28-0.46666-0.22667-0.62666-0.72-0.30667-0.96 0.08-2.44 0.26667-0.97333 0.96-1.72 0.8-0.85333 1.8133-1.4133 0.76-0.41333 1.4667-0.49333 0.24-0.026667 0.41333 0.013333 0.18667 0.04 0.38666 0.08 0.21333 0.04 0.4 0.12 0.48 0.2 0.48 0.54667zm-2.4667 3.5333q0.09333-0.18667 0.14667-0.46667 0.06667-0.28 0.17333-0.61333-1.08 0.44-1.6533 1.08-0.62666 0.70666 0.08 0.97333 0.61333 0.16 0.89333-0.2 0.12-0.16 0.21333-0.4 0.09333-0.24 0.22667-0.49333-0.04 0.066667-0.08 0.12z"/>
  <path d="m48.847 1.0167 0.01333-0.053333 0.12-0.12q0.14667-0.34667 0.32-0.41333 0.09333-0.026667 0.24-0.066666 0.14667-0.04 0.38667-0.2 0.09333-0.18667 0.38667-0.16 0.29333 0.013333 0.57333 0.18667 0.29333 0.16 0.46666 0.45333 0.18667 0.29333 0.09333 0.61333-0.09333 0.30667-0.16 0.46667-0.05333 0.14667-0.12 0.28-0.05333 0.13333-0.14667 0.30667-0.08 0.16-0.21333 0.44l-0.44 0.92q-0.06667 0.17333-0.12 0.2-0.04 0.026667-0.08 0.093333 0.12-0.026667 0.2-0.04t0.16-0.026667q0.18667-0.026667 0.42667-0.053333 0.14667 0.026667 0.25333 0.026667h0.18667q0.16 0 0.38667 0.093333 0.22667 0.08 0.29333 0.29333 0.06667 0.21333 0.01333 0.44-0.05333 0.21333-0.21333 0.4-0.16 0.18667-0.41333 0.2-1.16 0.32-1.6533 0.34667l-0.08 0.093333v0.013333q-0.13332 0.32-0.29332 0.81333-0.14667 0.48-0.33333 1.0533-0.17333 0.56-0.36 1.1733-0.18667 0.6-0.38666 1.16-0.64 1.88-0.93333 2.04-0.10667 0.05333-0.22667 0.06667-0.10667 0.02667-0.12 0.04-0.46667-0.02667-0.77333-0.18667-0.30667-0.16-0.41333-0.30667-0.10667-0.14667-0.05333-0.33333 0.25333-2.32 1.0133-5.08-0.26667 0-0.37333 0.053333-0.2 0.10667-0.48 0.12h-0.01333q-0.21334-0.013337-0.38667-0.2-0.17333-0.18667-0.21333-0.42667t0.08-0.49333q0.12-0.25333 0.48-0.4 0.42667-0.12 0.62667-0.2 0.38666-0.16 0.64-0.22667 0.26667-0.066667 0.29333-0.08 0.04-0.026667 0.05333-0.04 0.04-0.026667 0.2-0.026667 0.08-0.38667 0.16-0.78666t0.2-0.81333q0.26667-0.96 0.73333-1.6533z"/>
  <path d="m55.7 9.0166q-0.25333 0.12-0.49333 0.18667-0.24 0.066667-0.56 0.13333-0.84 0.17333-1.2133 0.2 0.04 0.13333 0.4 0.32 0.24 0.04 0.52-0.066667 0.29333-0.12 0.6-0.21333 0.32-0.10667 0.61333-0.12 0.30667-0.013333 0.57333 0.22667 0.10667 0.24 0.17333 0.28 0.06667 0.04 0.12 0.04 0.05333 0 0.12 0.04t0.18667 0.30667q0.13333 0.26667-0.06667 0.50666-0.18667 0.24-0.58666 0.41333-0.4 0.17333-0.93333 0.28-0.53333 0.10667-1.0667 0.14667-1.2 0.09333-1.8267-0.18667-0.90666-0.30667-1.1733-1.2133-0.34667-1.2 0.38667-2.8 0.33333-0.74666 1.0533-1.6 0.62666-0.74666 1.4-1.08 0.89333-0.38667 1.8667-0.36 1.04 0.026667 1.44 0.90666 0.2 0.46667 0.08 1.3067-0.21333 1.0933-0.56 1.5467-0.34667 0.44-1.0533 0.8zm-0.77333-2.1067q-0.70666-0.14667-1.1067 0.8-0.12 0.25333-0.18667 0.53333 0.45333 0.053333 0.96-0.50667 0.18667-0.22667 0.28-0.45333 0.09333-0.24 0.05333-0.37333z"/>
  <path d="m59.7 5.2167q0.89333-0.36 1.2-0.013333 0.16 0.18667 0.16 0.52v0.066666q0.49333-0.57333 1.72-0.96 1.2933-0.4 2.1333-0.22667 1.0933 0.22667 1.2267 1.4267 0.10667 1.0133-0.46667 2.5733-0.18667 0.4-0.29333 0.65333-0.09333 0.24-0.17333 0.44-0.17333 0.37333-0.54666 0.89333-0.21333 0.4-0.66666 0.61333-0.44 0.21333-0.88 0.24-0.42667 0.04-0.70666-0.13333-0.28-0.16-0.16-0.52 0.30667-0.82666 0.50667-1.5067 0.2-0.68 0.41333-1.16 0.2-0.68 0.05333-0.85333-0.12-0.13333-0.41333 0.04-0.25333 0.16-0.36 0.37333-0.24 0.17333-0.90666 1.3867-0.18667 0.33333-0.37333 0.66666-0.17333 0.32-0.33333 0.6-0.14667 0.28-0.26667 0.46667-0.10667 0.18667-0.2 0.24-0.08 0.06667-0.14667 0.08-0.05333 0.02667-0.09333 0.05333-0.04 0.02667-0.06667 0.17333-0.05333 0.30667-0.64 0.45333-0.94666 0.24-1.7067-0.08-0.25333-0.10667-0.4-0.29333-0.30667-0.61333 1.0533-4.1733 0.48-1.2533 0.62666-1.4933 0.33333-0.50667 0.42667-0.57333 0.10667-0.066667 0.28 0.026667z"/>
 </g>
</svg>
