<?xml version="1.0" encoding="UTF-8"?>
<svg class="fill-current pb-1 w-8 h-8" version="1.1" viewBox="0 0 24 24" xmlns="http://www.w3.org/2000/svg">
 <!-- Coffee beans (smaller) -->
 <g transform="matrix(.38271 .30492 -.30396 .38392 13.674 8.3489)" stroke-width="1.2257">
  <path d="m14.622 7.2249c-2.842-2.842-6.792-3.5-8.822-1.47m0 0c-2.03 2.03-1.371 5.979 1.47 8.821m-1.47-8.822c0.245 1.226 1.544 3.896 4.78 4.778m-1.3692 9.2571c2.086 2.086 6.146 1.41 9.067-1.511 2.92-2.921 3.597-6.98 1.51-9.067m-10.576 10.579c-2.086-2.087-1.41-6.146 1.511-9.067 2.921-2.92 6.98-3.597 9.067-1.51m-10.58 10.575c1.511-0.504 4.372-0.917 5.667-5.667 0.907-3.324 3.652-4.659 4.91-4.91" fill="none" stroke="currentColor" stroke-linecap="round" stroke-linejoin="round" stroke-width="1.8386"/>
 </g>
 <g fill="none" stroke="currentColor">
  <!-- Steam -->
  <path d="m13.194 11.288c-0.27222-0.63825 0.69794-0.94796 0.56659-1.6088-0.061757-0.41203-0.53695-1.6771-0.82828-2.0327" opacity=".4498">
    <animate attributeName="d"
             values="m13.194 11.288c-0.27222-0.63825 0.69794-0.94796 0.56659-1.6088-0.061757-0.41203-0.53695-1.6771-0.82828-2.0327;
                     m13.394 11.288c-0.17222-0.63825 0.59794-0.94796 0.66659-1.6088-0.061757-0.41203-0.43695-1.6771-0.72828-2.0327;
                     m12.994 11.288c-0.37222-0.63825 0.79794-0.94796 0.46659-1.6088-0.061757-0.41203-0.63695-1.6771-0.92828-2.0327;
                     m13.194 11.288c-0.27222-0.63825 0.69794-0.94796 0.56659-1.6088-0.061757-0.41203-0.53695-1.6771-0.82828-2.0327"
             dur="2.5s"
             repeatCount="indefinite"/>
  </path>
  <path d="m16.645 11.538c0.29084-0.49873 0.94692-0.4936 1.2915-0.92886 0.34461-0.43526 1.05-1.5745 1.6091-1.7552" opacity=".4498">
    <animate attributeName="d"
             values="m16.645 11.538c0.29084-0.49873 0.94692-0.4936 1.2915-0.92886 0.34461-0.43526 1.05-1.5745 1.6091-1.7552;
                     m16.845 11.538c0.19084-0.49873 1.04692-0.4936 1.1915-0.92886 0.44461-0.43526 0.95-1.5745 1.7091-1.7552;
                     m16.445 11.538c0.39084-0.49873 0.84692-0.4936 1.3915-0.92886 0.24461-0.43526 1.15-1.5745 1.5091-1.7552;
                     m16.645 11.538c0.29084-0.49873 0.94692-0.4936 1.2915-0.92886 0.34461-0.43526 1.05-1.5745 1.6091-1.7552"
             dur="3s"
             repeatCount="indefinite"/>
  </path>
  <path d="m18.586 14.174c0.49532-0.23146 0.58168-0.99746 1.077-1.2289 0.33022-0.15431 1.6115-0.37538 1.7372-0.79696" opacity=".4498">
    <animate attributeName="d"
             values="m18.586 14.174c0.49532-0.23146 0.58168-0.99746 1.077-1.2289 0.33022-0.15431 1.6115-0.37538 1.7372-0.79696;
                     m18.786 14.174c0.39532-0.23146 0.68168-0.99746 0.977-1.2289 0.43022-0.15431 1.5115-0.37538 1.8372-0.79696;
                     m18.386 14.174c0.59532-0.23146 0.48168-0.99746 1.177-1.2289 0.23022-0.15431 1.7115-0.37538 1.6372-0.79696;
                     m18.586 14.174c0.49532-0.23146 0.58168-0.99746 1.077-1.2289 0.33022-0.15431 1.6115-0.37538 1.7372-0.79696"
             dur="2.2s"
             repeatCount="indefinite"/>
  </path>
 </g>
</svg>
